HIERARCHY
ROOT Hips
{
 OFFSET 0.000000 0.000000 0.000000
 CHANNELS 6 Xposition Yposition Zposition Yrotation Xrotation Zrotation
 JOINT Chest
 {
  OFFSET 0.000000 13.173100 -0.061900
  CHANNELS 3 Yrotation Xrotation Zrotation
  JOINT Chest2
  {
   OFFSET 0.000000 8.040800 0.126200
   CHANNELS 3 Yrotation Xrotation Zrotation
   JOINT Chest3
   {
    OFFSET 0.000000 7.994400 0.000000
    CHANNELS 3 Yrotation Xrotation Zrotation
    JOINT Chest4
    {
     OFFSET 0.000000 7.986200 0.000000
     CHANNELS 3 Yrotation Xrotation Zrotation
     JOINT Neck
     {
      OFFSET 0.000000 12.259400 0.000000
      CHANNELS 3 Yrotation Xrotation Zrotation
      JOINT Head
      {
       OFFSET 0.000000 7.518700 0.267100
       CHANNELS 3 Yrotation Xrotation Zrotation
       End Site
       {
        OFFSET 0.000000 13.617700 0.141000
       }
      }
     }
     JOINT RightCollar
     {
      OFFSET -2.983800 8.314300 0.000000
      CHANNELS 3 Yrotation Xrotation Zrotation
      JOINT RightShoulder
      {
       OFFSET -16.133400 0.000000 0.000000
       CHANNELS 3 Yrotation Xrotation Zrotation
       JOINT RightElbow
       {
        OFFSET 0.000000 -29.822100 0.000000
        CHANNELS 3 Yrotation Xrotation Zrotation
        JOINT RightWrist
        {
         OFFSET 0.000000 -24.437700 0.010900
         CHANNELS 3 Yrotation Xrotation Zrotation
         End Site
         {
          OFFSET 0.000000 -18.312300 0.000000
         }
        }
       }
      }
     }
     JOINT LeftCollar
     {
      OFFSET 2.983800 8.314300 0.000000
      CHANNELS 3 Yrotation Xrotation Zrotation
      JOINT LeftShoulder
      {
       OFFSET 16.133400 0.000000 0.000000
       CHANNELS 3 Yrotation Xrotation Zrotation
       JOINT LeftElbow
       {
        OFFSET 0.000000 -29.822100 0.000000
        CHANNELS 3 Yrotation Xrotation Zrotation
        JOINT LeftWrist
        {
         OFFSET 0.000000 -24.437700 0.010900
         CHANNELS 3 Yrotation Xrotation Zrotation
         End Site
         {
          OFFSET 0.000000 -18.312300 0.000000
         }
        }
       }
      }
     }
    }
   }
  }
 }
 JOINT RightHip
 {
  OFFSET -11.206700 0.306200 0.030900
  CHANNELS 3 Yrotation Xrotation Zrotation
  JOINT RightKnee
  {
   OFFSET 0.000000 -57.334900 0.009400
   CHANNELS 3 Yrotation Xrotation Zrotation
   JOINT RightAnkle
   {
    OFFSET 0.000000 -43.376200 0.036600
    CHANNELS 3 Yrotation Xrotation Zrotation
    JOINT RightToe
    {
     OFFSET 0.000000 -10.035500 18.363100
     CHANNELS 3 Yrotation Xrotation Zrotation
     End Site
     {
      OFFSET 0.000000 -1.618500 7.239000
     }
    }
   }
  }
 }
 JOINT LeftHip
 {
  OFFSET 11.206700 0.306200 0.030900
  CHANNELS 3 Yrotation Xrotation Zrotation
  JOINT LeftKnee
  {
   OFFSET 0.000000 -57.334900 0.009400
   CHANNELS 3 Yrotation Xrotation Zrotation
   JOINT LeftAnkle
   {
    OFFSET 0.000000 -43.376200 0.036600
    CHANNELS 3 Yrotation Xrotation Zrotation
    JOINT LeftToe
    {
     OFFSET 0.000000 -10.035500 18.363100
     CHANNELS 3 Yrotation Xrotation Zrotation
     End Site
     {
      OFFSET 0.000000 -1.618500 7.239000
     }
    }
   }
  }
 }
}
MOTION
Frames: 9
Frame Time: 0.008333
-97.749723 67.068977 85.550622 171.963295 -38.607292 -4.011005 3.247816 20.342114 2.421279 0.378457 2.660962 0.244626 0.549192 4.258097 0.390467 2.612114 17.474219 1.942216 0.947558 15.767076 0.692769 1.444600 -6.571946 0.968292 -3.178080 1.639272 -2.422005 -2.833150 -2.226994 4.287505 125.345857 -84.011500 -113.841558 0.487093 -2.608238 -8.317631 -1.551851 -0.237587 -0.165526 7.835690 -1.163867 1.646801 132.776089 -83.032776 -152.468509 -6.642178 -6.361450 14.901888 1.043707 -47.672368 5.573262 -22.405671 74.428217 -18.894077 0.313474 8.055137 -0.224795 -0.026937 0.754308 0.182162 -6.385455 -38.226416 6.724197 63.101277 85.256742 52.651442 -2.616563 -10.922095 8.597834 -0.012904 -0.095183 -0.279562
-97.759874 67.090008 85.503373 172.003497 -38.565110 -4.031817 3.240889 20.340700 2.432551 0.382233 2.654097 0.241665 0.548869 4.260576 0.393026 2.621251 17.468768 1.942833 0.931347 15.784593 0.682710 1.438780 -6.489166 0.927454 -3.208863 1.611333 -2.403316 -2.848555 -2.209618 4.208005 125.571668 -84.052154 -114.059968 0.492098 -2.573504 -8.266175 -1.580759 -0.210259 -0.165905 7.829147 -1.125373 1.653101 134.645398 -83.042875 -154.299027 -6.686370 -6.343445 14.865650 0.888835 -47.803728 5.640634 -23.575893 75.076209 -20.065651 0.423223 7.355041 -0.364666 -0.037779 0.658729 0.217287 -6.476579 -38.259434 6.726594 63.337267 85.282453 52.868782 -2.588034 -10.910487 8.616134 0.006298 -0.120175 -0.281380
-97.769849 67.112388 85.462921 172.082226 -38.503929 -4.089990 3.244253 20.343568 2.466628 0.352106 2.621179 0.239767 0.551469 4.260226 0.397090 2.627660 17.464043 1.949684 0.900305 15.774297 0.677311 1.444697 -6.381107 0.863577 -3.245665 1.585754 -2.383671 -2.855895 -2.210947 4.162317 125.303644 -84.076275 -113.788843 0.497435 -2.557096 -8.241824 -1.608311 -0.211036 -0.160530 7.831576 -1.097950 1.652986 136.007723 -83.089918 -155.639289 -6.725927 -6.309334 14.813954 0.717167 -47.925730 5.702909 -24.819466 75.722379 -21.282261 0.517000 6.696759 -0.570343 -0.051175 0.535360 0.292522 -6.568767 -38.314446 6.722498 63.845207 85.265985 53.388635 -2.600996 -10.898411 8.640653 0.019872 -0.114682 -0.248102
-97.776445 67.141302 85.423196 172.114390 -38.471007 -4.141684 3.255858 20.338952 2.508881 0.352586 2.620702 0.242121 0.557580 4.259354 0.397630 2.632505 17.461255 1.961155 0.888866 15.808561 0.651935 1.425465 -6.383353 0.853602 -3.281776 1.560663 -2.362870 -2.859085 -2.219553 4.118608 125.019841 -84.103773 -113.501881 0.505642 -2.536449 -8.234215 -1.632424 -0.221411 -0.155738 7.826640 -1.100653 1.646835 136.827920 -83.175923 -156.439968 -6.763063 -6.268280 14.744552 0.598574 -48.005639 5.765473 -26.102034 76.378784 -22.510466 0.589420 6.086679 -0.749771 -0.074557 0.385225 0.326411 -6.611767 -38.331175 6.726879 64.348664 85.230702 53.924005 -2.617259 -10.907624 8.624438 0.025756 -0.098371 -0.189029
-97.788239 67.172527 85.386381 172.159997 -38.446459 -4.188100 3.236666 20.330036 2.531474 0.359392 2.633656 0.246468 0.568209 4.260621 0.400047 2.638146 17.458220 1.979074 0.874978 15.838299 0.618862 1.412902 -6.314410 0.774459 -3.317508 1.538264 -2.350555 -2.859449 -2.234272 4.080764 124.681245 -84.131933 -113.162927 0.508231 -2.552395 -8.235228 -1.650769 -0.233383 -0.141493 7.851946 -1.070851 1.634108 137.204646 -83.184163 -156.846525 -6.820019 -6.179840 14.660102 0.521143 -48.063968 5.782371 -27.402868 77.045871 -23.740756 0.603877 5.535832 -0.907548 -0.079558 0.206170 0.336468 -6.655339 -38.341314 6.718898 64.707981 85.204849 54.309448 -2.633196 -10.898405 8.622920 0.044359 -0.105943 -0.159336
-97.797865 67.200463 85.360029 172.205093 -38.399413 -4.256167 3.220805 20.297191 2.575128 0.360948 2.644761 0.253281 0.576221 4.262651 0.401367 2.645783 17.455545 1.999696 0.861699 15.863441 0.581813 1.404198 -6.255864 0.687460 -3.342716 1.523123 -2.341546 -2.865953 -2.253198 4.049421 124.361422 -84.161377 -112.845900 0.520277 -2.567372 -8.232323 -1.653085 -0.240801 -0.112316 7.882632 -1.045633 1.605129 137.379878 -83.190689 -157.068089 -6.830503 -6.070685 14.560328 0.435512 -48.129163 5.830848 -28.761298 77.710953 -25.031843 0.578305 5.023823 -1.006416 -0.077622 0.025150 0.305080 -6.720433 -38.374421 6.743621 64.910884 85.193805 54.541259 -2.631182 -10.898236 8.625262 0.058177 -0.113133 -0.160272
-97.814685 67.229515 85.334234 172.219143 -38.377435 -4.279793 3.222289 20.319745 2.605097 0.356706 2.621984 0.251432 0.590192 4.289505 0.420283 2.647895 17.432873 2.003919 0.848067 15.883639 0.541486 1.391015 -6.230773 0.617134 -3.361994 1.513913 -2.336046 -2.881890 -2.274750 4.022464 124.129247 -84.193036 -112.620219 0.496694 -2.514797 -8.243865 -1.655346 -0.249845 -0.082429 7.957159 -1.001878 1.602289 136.804433 -83.298011 -156.589678 -6.805977 -6.090964 14.464569 0.411193 -48.168958 5.837837 -30.226428 78.391718 -26.435392 0.525307 4.558076 -1.045614 -0.069961 -0.169828 0.240407 -6.740150 -38.382299 6.718535 65.008606 85.177329 54.673049 -2.600798 -10.896536 8.608730 0.059483 -0.109828 -0.123986
-97.839047 67.256833 85.310818 172.207151 -38.369272 -4.260852 3.221695 20.329270 2.601135 0.361102 2.618838 0.250672 0.591945 4.295776 0.430227 2.683488 17.451030 2.058672 0.807208 15.886351 0.467214 1.376942 -6.240176 0.585479 -3.390378 1.495305 -2.363968 -2.899031 -2.300093 3.993335 124.036255 -84.232866 -112.542138 0.499626 -2.502584 -8.231078 -1.674221 -0.269318 -0.076515 7.959399 -0.985220 1.559442 136.038100 -83.396417 -155.851516 -6.804346 -6.056645 14.349848 0.444669 -48.204970 5.803011 -31.884144 79.086573 -28.031770 0.442577 4.163606 -1.053915 -0.045136 -0.399471 0.169943 -6.726519 -38.379222 6.662641 65.022988 85.162474 54.713644 -2.562801 -10.897673 8.592373 0.057172 -0.105045 -0.092203
-97.861700 67.278782 85.295486 172.185748 -38.350433 -4.251875 3.228067 20.326714 2.615417 0.370264 2.605971 0.239797 0.589496 4.311917 0.451150 2.706929 17.456274 2.096161 0.806606 15.918341 0.405260 1.352020 -6.244020 0.487274 -3.399493 1.495124 -2.381012 -2.928935 -2.327894 3.972250 124.046162 -84.271573 -112.560863 0.534953 -2.503231 -8.210919 -1.685067 -0.270534 -0.055275 7.946987 -0.966471 1.511834 135.339595 -83.469218 -155.159408 -6.803699 -5.981456 14.210489 0.448116 -48.246094 5.812906 -33.773440 79.776815 -29.871380 0.364133 3.779527 -1.047443 -0.027328 -0.604653 0.103680 -6.724835 -38.388735 6.624398 65.106859 85.138155 54.822717 -2.525317 -10.898578 8.582584 0.047257 -0.106250 -0.083844
